<?xml version="1.0" encoding="UTF-8"?>
<svg xmlns="http://www.w3.org/2000/svg" xmlns:xlink="http://www.w3.org/1999/xlink" width="1225pt" height="817pt" viewBox="0 0 1225 817" version="1.1">
<defs>
<clipPath id="clip0">
  <rect width="1225" height="817"/>
</clipPath>
</defs>
<g id="surface0" clip-path="url(#clip0)">
<path style="fill: none; stroke-width: 0.1; stroke-linecap: butt; stroke-linejoin: miter; stroke: rgb(0%,21.960786%,57.647061%); opacity: 1;stroke-miterlimit: 10;" d="M 0 0 L 1225 0 L 1225 817 L 0 817 L 0 0 Z M 0 0 " transform="matrix(1,0,0,1,0,0)"/>
<path style="stroke: none; fill-rule: nonzero; fill: rgb(0%,21.960786%,57.647061%); opacity: 1;" d="M 0 0 L 1225 0 L 1225 817 L 0 817 L 0 0 Z M 0 0 "/>
<path style="fill: none; stroke-width: 0.1; stroke-linecap: butt; stroke-linejoin: miter; stroke: rgb(80.784321%,6.666667%,14.901961%); opacity: 1;stroke-miterlimit: 10;" d="M 24.325073 24.325287 C 416.464035 24.431702 808.602982 24.23288 1200.740799 24.264221 C 1200.778076 280.421188 1200.775711 536.579071 1200.741638 792.736115 C 808.579971 792.753067 416.4198 792.748779 24.258224 792.737259 C 24.207336 687.490433 24.252396 582.243332 24.237534 476.996521 C 24.29129 326.106125 24.127304 175.214859 24.325073 24.325287 Z M 24.325073 24.325287 " transform="matrix(1,0,0,1,0,0)"/>
<path style="stroke: none; fill-rule: nonzero; fill: rgb(80.784321%,6.666667%,14.901961%); opacity: 1;" d="M 24.325073 24.325287 C 416.464035 24.431702 808.602982 24.23288 1200.740799 24.264221 C 1200.778076 280.421188 1200.775711 536.579071 1200.741638 792.736115 C 808.579971 792.753067 416.4198 792.748779 24.258224 792.737259 C 24.207336 687.490433 24.252396 582.243332 24.237534 476.996521 C 24.29129 326.106125 24.127304 175.214859 24.325073 24.325287 Z M 24.325073 24.325287 "/>
<path style="fill: none; stroke-width: 0.1; stroke-linecap: butt; stroke-linejoin: miter; stroke: rgb(100%,100%,100%); opacity: 1;stroke-miterlimit: 10;" d="M 150.383224 244.982971 C 155.43013 250.75058 159.624924 257.186127 164.38382 263.184052 C 169.632492 257.496536 173.600739 250.794022 178.706329 244.987961 C 180.704102 252.342255 182.378922 259.781235 184.448349 267.118225 C 191.392426 263.890793 197.545593 259.24411 204.427429 255.897644 C 203.72168 263.471252 202.3629 270.963837 201.511963 278.521652 C 209.104492 277.916855 216.584991 276.400024 224.166595 275.688919 C 220.851486 282.57962 216.280289 288.770401 212.969101 295.665161 C 220.282928 297.744797 227.732086 299.306702 235.045593 301.392517 C 229.34462 306.590912 222.644455 310.527328 216.912231 315.688278 C 219.951385 318.115036 223.059052 320.459915 226.225098 322.723663 C 243.300186 312.549194 257.750732 298.021912 267.903183 280.939102 C 271.181686 275.462128 273.704605 269.588013 276.591034 263.906113 C 276.237152 289.302292 267.462524 314.60759 251.242691 334.243317 C 230.937378 359.351318 199.32106 374.969879 166.986694 375.372849 C 143.715393 376.018234 120.379166 368.934769 101.214828 355.762573 C 71.987274 335.771942 52.785156 301.187103 52.949646 265.609085 C 56.353592 271.145767 58.766373 277.227661 62.280624 282.704254 C 72.433777 298.9655 86.368179 313.014038 102.968643 322.678467 C 106.173645 320.435364 109.321838 318.09346 112.159683 315.393448 C 106.194412 310.615662 99.766083 306.43631 93.994751 301.416504 C 101.330399 299.324341 108.789398 297.704422 116.138428 295.661835 C 112.821503 288.743698 108.26474 282.521973 104.844437 275.660858 C 112.455475 276.273651 119.954071 277.779434 127.546005 278.559036 C 126.838669 270.966537 125.382401 263.469879 124.646011 255.882431 C 131.550476 259.21759 137.729462 263.847717 144.658691 267.139053 C 146.712219 259.790878 148.360596 252.338257 150.383224 244.982971 Z M 150.383224 244.982971 " transform="matrix(1,0,0,1,0,0)"/>
<path style="stroke: none; fill-rule: nonzero; fill: rgb(100%,100%,100%); opacity: 1;" d="M 150.383224 244.982971 C 155.43013 250.75058 159.624924 257.186127 164.38382 263.184052 C 169.632492 257.496536 173.600739 250.794022 178.706329 244.987961 C 180.704102 252.342255 182.378922 259.781235 184.448349 267.118225 C 191.392426 263.890793 197.545593 259.24411 204.427429 255.897644 C 203.72168 263.471252 202.3629 270.963837 201.511963 278.521652 C 209.104492 277.916855 216.584991 276.400024 224.166595 275.688919 C 220.851486 282.57962 216.280289 288.770401 212.969101 295.665161 C 220.282928 297.744797 227.732086 299.306702 235.045593 301.392517 C 229.34462 306.590912 222.644455 310.527328 216.912231 315.688278 C 219.951385 318.115036 223.059052 320.459915 226.225098 322.723663 C 243.300186 312.549194 257.750732 298.021912 267.903183 280.939102 C 271.181686 275.462128 273.704605 269.588013 276.591034 263.906113 C 276.237152 289.302292 267.462524 314.60759 251.242691 334.243317 C 230.937378 359.351318 199.32106 374.969879 166.986694 375.372849 C 143.715393 376.018234 120.379166 368.934769 101.214828 355.762573 C 71.987274 335.771942 52.785156 301.187103 52.949646 265.609085 C 56.353592 271.145767 58.766373 277.227661 62.280624 282.704254 C 72.433777 298.9655 86.368179 313.014038 102.968643 322.678467 C 106.173645 320.435364 109.321838 318.09346 112.159683 315.393448 C 106.194412 310.615662 99.766083 306.43631 93.994751 301.416504 C 101.330399 299.324341 108.789398 297.704422 116.138428 295.661835 C 112.821503 288.743698 108.26474 282.521973 104.844437 275.660858 C 112.455475 276.273651 119.954071 277.779434 127.546005 278.559036 C 126.838669 270.966537 125.382401 263.469879 124.646011 255.882431 C 131.550476 259.21759 137.729462 263.847717 144.658691 267.139053 C 146.712219 259.790878 148.360596 252.338257 150.383224 244.982971 Z M 150.383224 244.982971 "/>
<path style="fill: none; stroke-width: 0.1; stroke-linecap: butt; stroke-linejoin: miter; stroke: rgb(100%,100%,100%); opacity: 1;stroke-miterlimit: 10;" d="M 144.874725 520.206741 C 151.71373 505.10907 157.370102 489.47261 164.670013 474.594803 C 171.548401 489.640808 177.505692 505.094208 184.262741 520.197205 C 197.973038 510.848999 210.534683 499.893372 224.331512 490.668884 C 222.917145 507.167664 220.097244 523.518478 218.648376 540.017181 C 235.398285 538.542313 252.014084 535.850723 268.732513 534.079514 C 258.567291 547.411224 248.354935 560.71344 238.461594 574.248901 C 253.483856 581.414246 269.174866 587.088745 284.240189 594.163834 C 269.15506 601.176361 253.553345 607.024918 238.432388 613.960266 C 248.0065 627.528656 258.632919 640.330276 268.139359 653.946609 C 251.564926 652.673935 235.169037 649.64212 218.592438 648.373978 C 220.253159 664.806015 223.018936 681.120911 224.317062 697.590408 C 210.528488 688.370239 197.894913 677.527313 184.278137 668.056717 C 177.446304 683.284393 171.556549 698.932663 164.430008 714.024658 C 157.76593 698.828705 151.678635 683.38266 144.863098 668.255127 C 131.051941 677.566559 118.258987 688.308014 104.716385 698.004745 C 106.248459 681.410965 108.912643 664.942657 110.51236 648.355881 C 93.951614 649.70813 77.546021 652.545074 60.994232 653.965927 C 70.453751 640.340973 81.123871 627.593002 90.59227 613.975494 C 75.516541 606.953705 59.907166 601.135101 44.809402 594.166824 C 59.915588 587.138763 75.602966 581.409958 90.651428 574.258972 C 80.988754 560.735565 70.421631 547.871368 60.910004 534.243713 C 77.456451 535.831131 93.889954 538.503967 110.447952 540.01915 C 108.975632 523.506241 106.174103 507.138657 104.758011 490.624329 C 118.514587 499.946213 131.174927 510.7995 144.874725 520.206741 Z M 144.874725 520.206741 " transform="matrix(1,0,0,1,0,0)"/>
<path style="stroke: none; fill-rule: nonzero; fill: rgb(100%,100%,100%); opacity: 1;" d="M 144.874725 520.206741 C 151.71373 505.10907 157.370102 489.47261 164.670013 474.594803 C 171.548401 489.640808 177.505692 505.094208 184.262741 520.197205 C 197.973038 510.848999 210.534683 499.893372 224.331512 490.668884 C 222.917145 507.167664 220.097244 523.518478 218.648376 540.017181 C 235.398285 538.542313 252.014084 535.850723 268.732513 534.079514 C 258.567291 547.411224 248.354935 560.71344 238.461594 574.248901 C 253.483856 581.414246 269.174866 587.088745 284.240189 594.163834 C 269.15506 601.176361 253.553345 607.024918 238.432388 613.960266 C 248.0065 627.528656 258.632919 640.330276 268.139359 653.946609 C 251.564926 652.673935 235.169037 649.64212 218.592438 648.373978 C 220.253159 664.806015 223.018936 681.120911 224.317062 697.590408 C 210.528488 688.370239 197.894913 677.527313 184.278137 668.056717 C 177.446304 683.284393 171.556549 698.932663 164.430008 714.024658 C 157.76593 698.828705 151.678635 683.38266 144.863098 668.255127 C 131.051941 677.566559 118.258987 688.308014 104.716385 698.004745 C 106.248459 681.410965 108.912643 664.942657 110.51236 648.355881 C 93.951614 649.70813 77.546021 652.545074 60.994232 653.965927 C 70.453751 640.340973 81.123871 627.593002 90.59227 613.975494 C 75.516541 606.953705 59.907166 601.135101 44.809402 594.166824 C 59.915588 587.138763 75.602966 581.409958 90.651428 574.258972 C 80.988754 560.735565 70.421631 547.871368 60.910004 534.243713 C 77.456451 535.831131 93.889954 538.503967 110.447952 540.01915 C 108.975632 523.506241 106.174103 507.138657 104.758011 490.624329 C 118.514587 499.946213 131.174927 510.7995 144.874725 520.206741 Z M 144.874725 520.206741 "/>
</g>
</svg>
